<svg width="40" height="40" viewBox="0 0 40 40" fill="none" xmlns="http://www.w3.org/2000/svg">
<circle cx="20" cy="20" r="20" fill="#E9F6FF"/>
<g clip-path="url(#clip0)">
<path d="M22.0585 30.0697L20.9779 30.6936C20.8693 30.7563 20.7467 30.7907 20.6214 30.7938C20.496 30.7968 20.3719 30.7684 20.2604 30.7111C20.1489 30.6538 20.0535 30.5695 19.983 30.4658C19.9124 30.3622 19.869 30.2425 19.8567 30.1177L19.1395 22.8323L15.1599 25.0135L14.7293 27.5771C14.6544 28.0783 14.5248 28.3572 13.9686 28.6783L13.2412 29.0983C13.1281 29.1685 12.9998 29.2104 12.8671 29.2205C12.7345 29.2306 12.6013 29.2085 12.479 29.1562C12.3071 29.0817 12.0846 28.9157 11.9953 28.5472L11.1358 25.2004C11.1295 25.1754 11.1244 25.1497 11.1203 25.1239C11.1196 25.1216 11.1184 25.1196 11.1168 25.1178C11.0962 25.1015 11.0766 25.0841 11.058 25.0657L8.578 22.6302C8.31236 22.3716 8.28307 22.1006 8.30551 21.9182C8.32056 21.7957 8.36415 21.6784 8.43276 21.5758C8.50137 21.4732 8.5931 21.3882 8.70057 21.3275L9.46863 20.884C9.88392 20.6443 10.3946 20.5979 10.8053 20.7618L13.1943 21.6586L17.1112 19.3192L11.1671 15.065C11.0652 14.992 10.9832 14.8947 10.9286 14.7818C10.874 14.669 10.8486 14.5443 10.8546 14.419C10.8606 14.2938 10.898 14.1721 10.9632 14.0651C11.0284 13.958 11.1194 13.869 11.2279 13.8061L12.3203 13.1754C12.4745 13.0905 12.6458 13.0414 12.8215 13.0318C12.9973 13.0221 13.173 13.0522 13.3355 13.1198L21.9744 16.3593L24.2839 14.9436C24.4503 14.8352 24.9242 14.5572 25.0342 14.4937C27.2781 13.1998 29.0383 13.1546 29.7428 14.3749C29.9645 14.7589 30.2221 15.5596 29.4571 16.6053C29.0057 17.2232 28.2753 17.8256 27.2864 18.3966C27.1776 18.4594 26.7012 18.7301 26.5216 18.8213L24.1408 20.1126L22.6143 29.2211C22.5912 29.3952 22.5292 29.5618 22.433 29.7087C22.3368 29.8556 22.2088 29.979 22.0585 30.0697Z" fill="#005D93"/>
</g>
<defs>
<clipPath id="clip0">
<rect width="24" height="24" fill="white" transform="translate(3.60767 15.6077) rotate(-30)"/>
</clipPath>
</defs>
</svg>
