<svg width="31" height="29" viewBox="0 0 31 29" fill="none" xmlns="http://www.w3.org/2000/svg">
<path d="M17.4509 24.4622L16.3702 25.0861C16.2616 25.1488 16.139 25.1832 16.0137 25.1862C15.8884 25.1893 15.7642 25.1609 15.6527 25.1036C15.5412 25.0463 15.4458 24.9619 15.3753 24.8583C15.3048 24.7546 15.2614 24.6349 15.2491 24.5101L14.5318 17.2247L10.5523 19.406L10.1217 21.9696C10.0467 22.4707 9.91711 22.7496 9.36096 23.0707L8.6335 23.4907C8.52046 23.5609 8.39217 23.6028 8.25948 23.6129C8.1268 23.623 7.99364 23.601 7.87129 23.5486C7.69944 23.4741 7.47695 23.3081 7.38763 22.9397L6.52816 19.5929C6.52182 19.5679 6.51671 19.5421 6.51264 19.5163C6.51188 19.5141 6.51069 19.512 6.50913 19.5102C6.48856 19.494 6.46894 19.4766 6.45034 19.4581L3.97033 17.0226C3.70469 16.7641 3.6754 16.493 3.69785 16.3107C3.7129 16.1882 3.75648 16.0709 3.82509 15.9683C3.89371 15.8657 3.98544 15.7806 4.09291 15.7199L4.86096 15.2765C5.27625 15.0367 5.78694 14.9903 6.19768 15.1543L8.5866 16.051L12.5035 13.7116L6.55948 9.45747C6.45755 9.3845 6.37553 9.28714 6.32093 9.17429C6.26633 9.06144 6.24089 8.93671 6.24693 8.81149C6.25297 8.68628 6.29031 8.56457 6.35551 8.45751C6.42072 8.35044 6.51173 8.26143 6.62022 8.19861L7.71263 7.5679C7.8668 7.48297 8.03812 7.43387 8.21387 7.42423C8.38962 7.41459 8.56529 7.44466 8.72783 7.51222L17.3667 10.7518L19.6763 9.3361C19.8426 9.22762 20.3165 8.94969 20.4265 8.88617C22.6705 7.59223 24.4306 7.54707 25.1351 8.76735C25.3568 9.15138 25.6145 9.95201 24.8494 10.9978C24.398 11.6156 23.6676 12.2181 22.6787 12.789C22.5699 12.8518 22.0935 13.1226 21.914 13.2138L19.5331 14.505L18.0066 23.6136C17.9835 23.7876 17.9215 23.9543 17.8253 24.1011C17.7291 24.248 17.6012 24.3714 17.4509 24.4622Z" fill="#005D93"/>
</svg>
