<svg width="40" height="40" viewBox="0 0 40 40" fill="none" xmlns="http://www.w3.org/2000/svg">
<circle cx="20" cy="20" r="20" fill="#E9F6FF"/>
<path d="M25.25 9.5H14.75C13.9546 9.50087 13.1921 9.81722 12.6296 10.3796C12.0672 10.9421 11.7509 11.7046 11.75 12.5V27.5C11.7509 28.2954 12.0672 29.0579 12.6296 29.6204C13.1921 30.1828 13.9546 30.4991 14.75 30.5H25.25C26.0454 30.4991 26.8079 30.1828 27.3704 29.6204C27.9328 29.0579 28.2491 28.2954 28.25 27.5V12.5C28.2491 11.7046 27.9328 10.9421 27.3704 10.3796C26.8079 9.81722 26.0454 9.50087 25.25 9.5ZM20 22.25H16.25C16.0511 22.25 15.8603 22.171 15.7197 22.0303C15.579 21.8897 15.5 21.6989 15.5 21.5C15.5 21.3011 15.579 21.1103 15.7197 20.9697C15.8603 20.829 16.0511 20.75 16.25 20.75H20C20.1989 20.75 20.3897 20.829 20.5303 20.9697C20.671 21.1103 20.75 21.3011 20.75 21.5C20.75 21.6989 20.671 21.8897 20.5303 22.0303C20.3897 22.171 20.1989 22.25 20 22.25ZM23.75 18.5H16.25C16.0511 18.5 15.8603 18.421 15.7197 18.2803C15.579 18.1397 15.5 17.9489 15.5 17.75C15.5 17.5511 15.579 17.3603 15.7197 17.2197C15.8603 17.079 16.0511 17 16.25 17H23.75C23.9489 17 24.1397 17.079 24.2803 17.2197C24.421 17.3603 24.5 17.5511 24.5 17.75C24.5 17.9489 24.421 18.1397 24.2803 18.2803C24.1397 18.421 23.9489 18.5 23.75 18.5ZM23.75 14.75H16.25C16.0511 14.75 15.8603 14.671 15.7197 14.5303C15.579 14.3897 15.5 14.1989 15.5 14C15.5 13.8011 15.579 13.6103 15.7197 13.4697C15.8603 13.329 16.0511 13.25 16.25 13.25H23.75C23.9489 13.25 24.1397 13.329 24.2803 13.4697C24.421 13.6103 24.5 13.8011 24.5 14C24.5 14.1989 24.421 14.3897 24.2803 14.5303C24.1397 14.671 23.9489 14.75 23.75 14.75Z" fill="#146CAB"/>
</svg>
