<svg width="40" height="40" viewBox="0 0 40 40" fill="none" xmlns="http://www.w3.org/2000/svg">
<circle cx="20" cy="20" r="20" fill="#E9F6FF"/>
<g clip-path="url(#clip0)">
<path d="M20 13.25C19.4808 13.25 18.9733 13.096 18.5416 12.8076C18.1099 12.5192 17.7735 12.1092 17.5748 11.6295C17.3761 11.1499 17.3241 10.6221 17.4254 10.1129C17.5267 9.60369 17.7767 9.13596 18.1438 8.76885C18.5109 8.40173 18.9787 8.15173 19.4879 8.05044C19.9971 7.94915 20.5249 8.00114 21.0045 8.19982C21.4842 8.3985 21.8941 8.73495 22.1826 9.16663C22.471 9.59831 22.625 10.1058 22.625 10.625C22.6242 11.321 22.3474 11.9882 21.8553 12.4803C21.3632 12.9725 20.6959 13.2493 20 13.25Z" fill="#005D93"/>
<path d="M28.25 13.2874L28.2289 13.2931L28.2092 13.2992C28.1623 13.3123 28.1155 13.3263 28.0686 13.3409C27.1962 13.5968 22.9625 14.7902 19.9798 14.7902C17.2081 14.7902 13.3573 13.759 12.1255 13.4088C12.0029 13.3614 11.8777 13.3211 11.7505 13.2879C10.8598 13.0535 10.2505 13.9582 10.2505 14.7851C10.2505 15.604 10.9864 15.994 11.7294 16.2738V16.287L16.1928 17.681C16.6489 17.8559 16.7708 18.0345 16.8303 18.1892C17.0239 18.6856 16.8692 19.6685 16.8144 20.0117L16.5425 22.121L15.0336 30.3799C15.0289 30.4024 15.0247 30.4254 15.0209 30.4488L15.0101 30.5084C14.9014 31.2654 15.4573 31.9999 16.5101 31.9999C17.4289 31.9999 17.8344 31.3657 18.0101 30.5027C18.1859 29.6398 19.3226 23.1167 19.9789 23.1167C20.6351 23.1167 21.987 30.5027 21.987 30.5027C22.1628 31.3657 22.5683 31.9999 23.487 31.9999C24.5426 31.9999 25.0986 31.2621 24.987 30.5027C24.9774 30.4389 24.9656 30.3754 24.9514 30.3124L23.4219 22.122L23.1505 20.0126C22.9541 18.784 23.112 18.3781 23.1655 18.2829C23.1669 18.2807 23.1681 18.2783 23.1692 18.2759C23.2198 18.1821 23.4505 17.9721 23.9886 17.7701L28.1736 16.3071C28.1993 16.3003 28.2246 16.2921 28.2495 16.2827C28.9995 16.0015 29.7495 15.6124 29.7495 14.786C29.7495 13.9596 29.1406 13.0535 28.25 13.2874Z" fill="#005D93"/>
</g>
<defs>
<clipPath id="clip0">
<rect width="24" height="24" fill="white" transform="translate(8 8)"/>
</clipPath>
</defs>
</svg>
